<svg id="Grupo_15" data-name="Grupo 15" xmlns="http://www.w3.org/2000/svg" xmlns:xlink="http://www.w3.org/1999/xlink" width="126.885" height="50.275" viewBox="0 0 126.885 50.275">
  <defs>
    <clipPath id="clip-path">
      <rect id="Rectángulo_5" data-name="Rectángulo 5" width="126.885" height="50.274" fill="none"/>
    </clipPath>
  </defs>
  <path id="Trazado_14" data-name="Trazado 14" d="M11.492,3.113,16.1,14.569H6.889ZM9.869,0,0,23.115H3.479l2.349-5.826H17.152l2.356,5.826h3.61L13.346,0Z" fill="#0086ff"/>
  <g id="Grupo_4" data-name="Grupo 4" transform="translate(0 0)">
    <g id="Grupo_3" data-name="Grupo 3" clip-path="url(#clip-path)">
      <path id="Trazado_15" data-name="Trazado 15" d="M40.732,0H46.79c4.737,0,8.681,1.656,8.681,6.923,0,5.134-4.009,6.951-8.182,6.951H44.042v9.241h-3.31Zm3.31,10.962h3.278c2.053,0,4.64-1.027,4.64-4.075,0-2.914-3.051-3.974-5.1-3.974H44.042Z" transform="translate(-14.473 0)" fill="#0086ff"/>
      <path id="Trazado_16" data-name="Trazado 16" d="M69.294,0h6.061c4.735,0,8.676,1.656,8.676,6.923,0,5.134-4.011,6.951-8.18,6.951H72.6v9.241h-3.31ZM72.6,10.962h3.279c2.057,0,4.635-1.027,4.635-4.075,0-2.914-3.047-3.974-5.1-3.974H72.6Z" transform="translate(-24.621 0)" fill="#0086ff"/>
      <path id="Trazado_17" data-name="Trazado 17" d="M5.513,40.056H6.956l4.053,9.591h-1.5l-.977-2.42h-4.7l-.972,2.42H1.422Zm.673,1.289L4.276,46.1H8.1Zm.344-3.969h1.5l-1.8,1.979H5.311Z" transform="translate(-0.505 -13.281)"/>
      <path id="Trazado_18" data-name="Trazado 18" d="M18.323,41.533h2.354c1.89,0,3.719.3,3.719,2.6a2.233,2.233,0,0,1-1.978,2.185v.028a1.6,1.6,0,0,1,.937.961l1.81,3.82H23.6L22.13,47.8c-.428-.935-.876-.935-1.609-.935H19.7v4.261H18.323ZM19.7,45.654h1.169c1.305,0,2.076-.576,2.076-1.5,0-.866-.661-1.415-1.924-1.415H19.7Z" transform="translate(-6.51 -14.758)"/>
      <path id="Trazado_19" data-name="Trazado 19" d="M31.589,41.533h5.368V42.74H32.962v2.806H36.6v1.209H32.962v3.158h3.994v1.211H31.589Z" transform="translate(-11.224 -14.758)"/>
      <path id="Trazado_20" data-name="Trazado 20" d="M45.785,41.533h1.443l4.053,9.591h-1.5L48.807,48.7h-4.7l-.973,2.419H41.694Zm.672,1.291-1.91,4.751h3.819Z" transform="translate(-14.815 -14.758)"/>
      <path id="Trazado_21" data-name="Trazado 21" d="M64.529,41.533h2.83c2.844,0,5.11,1.755,5.11,4.709,0,3.216-1.949,4.882-5.11,4.882h-2.83Zm1.374,8.38h1.439c2.36,0,3.669-1.143,3.669-3.615a3.346,3.346,0,0,0-3.5-3.559H65.9Z" transform="translate(-22.928 -14.758)"/>
      <path id="Trazado_22" data-name="Trazado 22" d="M80.154,41.533h5.372V42.74h-4v2.806h3.642v1.209H81.527v3.158h4v1.211H80.154Z" transform="translate(-28.48 -14.758)"/>
      <path id="Trazado_23" data-name="Trazado 23" d="M97.7,41.533h2.518c1.965,0,3.595.689,3.595,2.871,0,2.127-1.659,2.884-3.39,2.884H99.073v3.837H97.7Zm1.373,4.548h1.363a1.726,1.726,0,0,0,1.924-1.692c0-1.208-1.269-1.649-2.118-1.649H99.073Z" transform="translate(-34.714 -14.758)"/>
      <path id="Trazado_24" data-name="Trazado 24" d="M113.531,41.281c2.914,0,4.619,2.111,4.619,4.956,0,2.914-1.694,4.96-4.619,4.96s-4.614-2.046-4.614-4.96c0-2.844,1.7-4.956,4.614-4.956m0,8.7c2.215,0,3.162-1.841,3.162-3.749,0-1.951-1.045-3.762-3.162-3.751-2.111-.012-3.159,1.8-3.159,3.751,0,1.908.949,3.749,3.159,3.749" transform="translate(-38.7 -14.668)"/>
      <path id="Trazado_25" data-name="Trazado 25" d="M126.257,41.533h1.369v8.38h4.014v1.211h-5.384Z" transform="translate(-44.861 -14.758)"/>
      <path id="Trazado_26" data-name="Trazado 26" d="M137.814,37.376h1.5l-1.8,1.979H136.6Zm-1,2.68h1.369v9.593h-1.369Z" transform="translate(-48.534 -13.281)"/>
      <path id="Trazado_27" data-name="Trazado 27" d="M144.181,42.74H141.2V41.533h7.338V42.74h-2.984v8.384h-1.371Z" transform="translate(-50.17 -14.758)"/>
      <rect id="Rectángulo_3" data-name="Rectángulo 3" width="1.377" height="9.593" transform="translate(99.741 26.776)"/>
      <path id="Trazado_28" data-name="Trazado 28" d="M166.99,43.022a3.83,3.83,0,0,0-1.977-.536,3.75,3.75,0,0,0-.068,7.5,4.734,4.734,0,0,0,2.089-.464l.081,1.333a5.985,5.985,0,0,1-2.186.344,4.722,4.722,0,0,1-5.056-5,4.775,4.775,0,0,1,5.072-4.912,5.24,5.24,0,0,1,2.155.409Z" transform="translate(-56.805 -14.668)"/>
      <path id="Trazado_29" data-name="Trazado 29" d="M176.126,41.533h1.439l4.052,9.591h-1.5l-.978-2.419h-4.7l-.977,2.419H172.03Zm.67,1.291-1.911,4.751h3.823Z" transform="translate(-61.125 -14.758)"/>
      <path id="Trazado_30" data-name="Trazado 30" d="M193.1,42.884a4.216,4.216,0,0,0-1.8-.4c-.771,0-1.678.273-1.678,1.282,0,1.837,4.12,1.411,4.12,4.571,0,2.046-1.583,2.858-3.5,2.858a6.478,6.478,0,0,1-1.966-.4l.138-1.278a5.824,5.824,0,0,0,2,.466,1.715,1.715,0,0,0,1.877-1.567c0-2.141-4.121-1.551-4.121-4.531,0-1.705,1.349-2.606,3.084-2.606a6.384,6.384,0,0,1,2.044.338Z" transform="translate(-66.858 -14.668)"/>
      <path id="Trazado_31" data-name="Trazado 31" d="M2.935,62.855H5.446c1.966,0,3.6.685,3.6,2.868,0,2.129-1.661,2.884-3.391,2.884H4.306v3.835H2.935ZM4.306,67.4H5.665a1.73,1.73,0,0,0,1.928-1.689c0-1.209-1.265-1.65-2.118-1.65H4.306Z" transform="translate(-1.043 -22.334)"/>
      <path id="Trazado_32" data-name="Trazado 32" d="M22.383,66.991c0,2.7-1.361,4.139-3.72,4.139s-3.723-1.443-3.723-4.139V61.377h1.373v5.438c0,1.84.576,3.109,2.35,3.109s2.347-1.269,2.347-3.109V61.377h1.373Zm-3.407-8.3h1.5l-1.8,1.979h-.929Z" transform="translate(-5.308 -20.856)"/>
      <path id="Trazado_33" data-name="Trazado 33" d="M30.176,62.855h2.6c1.993,0,3.367.647,3.367,2.418a2.219,2.219,0,0,1-1.982,2.278v.03a2.245,2.245,0,0,1,2.23,2.305c0,2.064-1.706,2.556-3.657,2.556H30.176Zm1.373,4.091h.758c1.336,0,2.46-.119,2.46-1.537,0-1.139-.977-1.427-1.773-1.427H31.549Zm0,4.372h1.033c1.237,0,2.35-.264,2.35-1.555,0-1.481-1.3-1.687-2.486-1.687h-.9Z" transform="translate(-10.722 -22.334)"/>
      <path id="Trazado_34" data-name="Trazado 34" d="M43.315,62.855h1.371v8.38H48.7v1.207H43.315Z" transform="translate(-15.39 -22.334)"/>
      <rect id="Rectángulo_4" data-name="Rectángulo 4" width="1.375" height="9.589" transform="translate(34.812 40.522)"/>
      <path id="Trazado_35" data-name="Trazado 35" d="M66.272,64.34a3.891,3.891,0,0,0-1.978-.534,3.752,3.752,0,0,0-.068,7.5,4.7,4.7,0,0,0,2.086-.468l.088,1.333a5.976,5.976,0,0,1-2.19.344,4.721,4.721,0,0,1-5.056-5,4.78,4.78,0,0,1,5.072-4.92,5.325,5.325,0,0,1,2.158.412Z" transform="translate(-21.019 -22.242)"/>
      <path id="Trazado_36" data-name="Trazado 36" d="M75.4,62.855h1.437L80.9,72.442H79.4l-.976-2.416h-4.7l-.977,2.416H71.306Zm.672,1.291L74.168,68.9h3.815Z" transform="translate(-25.336 -22.334)"/>
      <path id="Trazado_37" data-name="Trazado 37" d="M92.38,64.205a4.191,4.191,0,0,0-1.8-.4c-.77,0-1.677.274-1.677,1.277,0,1.841,4.119,1.416,4.119,4.575,0,2.046-1.583,2.859-3.5,2.859a6.49,6.49,0,0,1-1.966-.4l.138-1.279a5.757,5.757,0,0,0,2,.469,1.717,1.717,0,0,0,1.877-1.565c0-2.146-4.121-1.553-4.121-4.535,0-1.7,1.349-2.61,3.08-2.61a6.579,6.579,0,0,1,2.046.342Z" transform="translate(-31.071 -22.242)"/>
    </g>
  </g>
</svg>
