<?xml version="1.0" encoding="utf-8"?>
<!-- Generator: Adobe Illustrator 27.5.0, SVG Export Plug-In . SVG Version: 6.00 Build 0)  -->
<svg version="1.1" id="Capa_1" xmlns="http://www.w3.org/2000/svg" xmlns:xlink="http://www.w3.org/1999/xlink" x="0px" y="0px"
	 viewBox="0 0 388.284 57.192" style="enable-background:new 0 0 388.284 57.192;" xml:space="preserve">
<style type="text/css">
	.st0{fill:#66BB6A;}
	.st1{fill:#FFFFFF;}
	.st2{fill:#3AB8EA;}
	.st3{fill:#0090D1;}
	.st4{fill:none;}
	.st5{fill:none;stroke:#0072BB;stroke-miterlimit:10;}
	.st6{clip-path:url(#SVGID_00000151536114263327527820000017242171412799938462_);}
	.st7{clip-path:url(#SVGID_00000084514793741916478720000005343945147358065825_);}
	.st8{clip-path:url(#SVGID_00000123416936749867345450000014892771644258734982_);fill:#4DB6AC;}
	.st9{clip-path:url(#SVGID_00000057845602672214667520000006346125212266771622_);fill:#4DB6AC;}
	.st10{clip-path:url(#SVGID_00000054228778383811853300000012665122061434870958_);fill:#4DB6AC;}
	.st11{clip-path:url(#SVGID_00000121957623187017518300000008745715218772779175_);fill:#4DB6AC;}
	.st12{opacity:0.15;}
	.st13{clip-path:url(#SVGID_00000126294306983603512790000005095960768611889340_);}
	.st14{clip-path:url(#SVGID_00000104687001029406404280000001619169808047176353_);}
	.st15{clip-path:url(#SVGID_00000035509774827557659020000000821363686579230386_);}
	.st16{clip-path:url(#SVGID_00000154428397199328738990000004747449703541021841_);}
	.st17{fill:#1D1719;}
	.st18{fill:#3DC2F7;}
	.st19{fill:#0072BB;}
	.st20{fill:#1A1A1A;}
	.st21{fill:#F2F7FB;}
	.st22{fill:#FFFFFF;stroke:#000000;stroke-width:0.25;stroke-miterlimit:10;}
	.st23{clip-path:url(#SVGID_00000176026115690264594330000001963068701391605411_);}
	.st24{clip-path:url(#SVGID_00000041258018414128046260000007111355926594445486_);}
	.st25{clip-path:url(#SVGID_00000012439048042521198330000004466809199969278871_);}
	.st26{fill:#2EAB66;}
	.st27{fill:#1D1D1B;}
	.st28{fill:#E5E9EA;}
	.st29{fill:#BABABA;}
	.st30{fill:#EBEBEB;}
	.st31{fill:#37474F;}
	.st32{fill:#C7C7C7;}
	.st33{fill:#EB9481;}
	.st34{fill:#455A64;}
	.st35{fill:#263238;}
	.st36{fill:#FF98B9;}
	.st37{fill:#D3766A;}
	.st38{fill:#748A91;}
	.st39{fill:#A5BDC6;}
	.st40{fill:#AD6359;}
	.st41{opacity:0.1;}
	.st42{clip-path:url(#SVGID_00000168830249539837969180000013414451723361760154_);}
	.st43{fill:#FF99BA;}
	.st44{clip-path:url(#SVGID_00000071520692577147222000000005989286872453628856_);}
	.st45{fill:#DBDBDB;}
	.st46{clip-path:url(#SVGID_00000030473161362177365860000012145759317625529529_);}
	.st47{opacity:0.92;}
	.st48{clip-path:url(#SVGID_00000180366621002122754170000015088043872330097580_);}
	.st49{opacity:0.83;}
	.st50{clip-path:url(#SVGID_00000093150267252561194660000007573083855993421996_);}
	.st51{opacity:0.4;}
	.st52{clip-path:url(#SVGID_00000138531448632506161630000017529878344212174984_);}
	.st53{opacity:0.6;}
	.st54{clip-path:url(#SVGID_00000165224472926473022050000005437998044162739633_);}
	.st55{fill:#F2F2F2;}
	.st56{fill:#CCCCCC;}
	.st57{fill:#F7A9A0;}
	.st58{clip-path:url(#SVGID_00000155137377565368647800000007759109940441970079_);}
	.st59{fill:#020100;}
	.st60{clip-path:url(#SVGID_00000073684658985882238930000005044266081963312537_);}
	.st61{fill:#A6A6A6;}
	.st62{clip-path:url(#SVGID_00000040560473136714666020000003441124822237131699_);}
	.st63{clip-path:url(#SVGID_00000041285420873035400280000003232203434101035692_);}
	.st64{fill:#FF97B8;}
	.st65{clip-path:url(#SVGID_00000147929907732307561200000007144572681893876669_);}
	.st66{clip-path:url(#SVGID_00000072982059016104240030000018345893713279799218_);}
	.st67{clip-path:url(#SVGID_00000007420067313050041690000017914385598168153989_);}
	.st68{clip-path:url(#SVGID_00000128475500620295706530000000989070317037397410_);}
	.st69{clip-path:url(#SVGID_00000173139519825004864510000008999500110042026120_);}
	.st70{clip-path:url(#SVGID_00000120533823428615920540000000356145835055443870_);}
	.st71{clip-path:url(#SVGID_00000085944954452897484800000004305892703841213069_);}
	.st72{clip-path:url(#SVGID_00000023260911291732767210000018303232430742402450_);}
	.st73{opacity:0.2;}
	.st74{clip-path:url(#SVGID_00000027598600506869010110000002349238626168160152_);}
	.st75{clip-path:url(#SVGID_00000017500935795703022390000010519894966503891079_);}
	.st76{clip-path:url(#SVGID_00000090997142771792238620000018135991050548413846_);}
	.st77{fill:#FF9ABB;}
	.st78{clip-path:url(#SVGID_00000083783560215378272860000014488678832749353858_);}
	.st79{opacity:0.3;}
	.st80{clip-path:url(#SVGID_00000026153286872454937100000012919274794709538223_);}
	.st81{opacity:0.5;fill:#263238;enable-background:new    ;}
	.st82{opacity:0.1;fill:#020100;enable-background:new    ;}
	.st83{clip-path:url(#SVGID_00000085958260814151593700000010403843672058298760_);fill:#EEEEEE;}
	.st84{clip-path:url(#SVGID_00000019641361123989559480000009237057907525398189_);}
	.st85{clip-path:url(#SVGID_00000036210821387257694490000011477073729882331044_);fill:#F2F7FB;}
	.st86{clip-path:url(#SVGID_00000018223182493015564860000016702648880624809150_);fill:#FFFFFF;}
	.st87{clip-path:url(#SVGID_00000100351958894465953660000012878842543313456054_);}
	.st88{clip-path:url(#SVGID_00000006690898394098546180000006673916909160020407_);fill:#EEEEEE;}
	.st89{clip-path:url(#SVGID_00000147926870632560757960000015731657394191412608_);}
	.st90{clip-path:url(#SVGID_00000173850674950042506400000004425104017464374719_);fill:#0090D1;}
	.st91{clip-path:url(#SVGID_00000159463594814573539410000014020124538428601485_);fill:#EEEEEE;}
	.st92{clip-path:url(#SVGID_00000079480385448018122650000000845015341905822117_);fill:#EEEEEE;}
	.st93{clip-path:url(#SVGID_00000083088505429710987560000014157553573410045093_);}
	
		.st94{clip-path:url(#SVGID_00000000928433771483976960000012389151725857445778_);fill:none;stroke:#FFFFFF;stroke-width:0.779;stroke-miterlimit:10;}
	.st95{clip-path:url(#SVGID_00000000928433771483976960000012389151725857445778_);fill:#FFFFFF;}
	.st96{clip-path:url(#SVGID_00000165957566811131406400000005940896849031729295_);}
	.st97{clip-path:url(#SVGID_00000132790808220515499150000002806894799073015211_);}
	.st98{clip-path:url(#SVGID_00000183940751050368621820000013672730215188104376_);}
	.st99{clip-path:url(#SVGID_00000103240813800886491330000008651601351394713022_);}
	.st100{clip-path:url(#SVGID_00000130606693567602641640000008381874496795447487_);}
	.st101{clip-path:url(#SVGID_00000080922947671573572000000002383690292899335090_);fill:#E6E6E6;}
	.st102{clip-path:url(#SVGID_00000080922947671573572000000002383690292899335090_);fill:#3DC2F7;}
	.st103{clip-path:url(#SVGID_00000088816180455382576850000001285608963281610920_);}
	
		.st104{clip-path:url(#SVGID_00000178899998629972407050000012312767196320628364_);fill:none;stroke:#3DC2F7;stroke-width:1.061;stroke-linecap:round;stroke-linejoin:round;}
	
		.st105{clip-path:url(#SVGID_00000088835465043992783180000011589478147206327741_);fill:none;stroke:#3DC2F7;stroke-width:1.14;stroke-linejoin:round;}
	.st106{clip-path:url(#SVGID_00000088835465043992783180000011589478147206327741_);fill:#3DC2F7;}
	
		.st107{clip-path:url(#SVGID_00000088835465043992783180000011589478147206327741_);fill:none;stroke:#3DC2F7;stroke-width:1.14;stroke-linecap:round;stroke-linejoin:round;}
	.st108{clip-path:url(#SVGID_00000155824722948267678850000003107943158945034905_);fill:#FFFFFF;}
	.st109{clip-path:url(#SVGID_00000081617767295541393700000000948355557589423251_);}
	.st110{fill:#269126;}
	
		.st111{clip-path:url(#SVGID_00000140732163072192540680000014447591426344977314_);fill:none;stroke:#269126;stroke-width:0.52;stroke-miterlimit:10;}
	.st112{clip-path:url(#SVGID_00000147920323406331774070000017311450405033706146_);}
	.st113{clip-path:url(#SVGID_00000021805891918946014230000001466955757997959339_);fill:#FFFFFF;}
	.st114{clip-path:url(#SVGID_00000021805891918946014230000001466955757997959339_);fill:#66BB6A;}
	.st115{clip-path:url(#SVGID_00000021805891918946014230000001466955757997959339_);}
	.st116{clip-path:url(#SVGID_00000113339352645760785020000007266613428104742051_);}
	.st117{clip-path:url(#SVGID_00000124148517595253729100000009554021180661654192_);}
	.st118{clip-path:url(#SVGID_00000079453122305201778580000003025741639869779892_);}
	.st119{clip-path:url(#SVGID_00000125592591817739499990000014646932645184265407_);}
	.st120{clip-path:url(#SVGID_00000007414242812089030460000015203080357676709000_);}
	.st121{clip-path:url(#SVGID_00000009574623931390475470000000404582726702353300_);}
	.st122{clip-path:url(#SVGID_00000171700377088901372180000000671142298903326381_);}
	.st123{clip-path:url(#SVGID_00000143615220140079848020000005036980313476555193_);}
	.st124{clip-path:url(#SVGID_00000067958189714336187240000000797341481262370466_);}
	.st125{clip-path:url(#SVGID_00000037669689580730469040000013976436762040662463_);}
	.st126{clip-path:url(#SVGID_00000002346848051430210340000005469548156485745039_);}
	.st127{clip-path:url(#SVGID_00000119085227522467120500000017839493926528592823_);}
	.st128{clip-path:url(#SVGID_00000134962326503171973430000012316583962540282015_);}
	.st129{clip-path:url(#SVGID_00000135676564584394673190000009356139160747526791_);}
	.st130{clip-path:url(#SVGID_00000112623736073373957270000002360719872067456957_);}
	.st131{clip-path:url(#SVGID_00000048470630363728900180000001403919271707232653_);}
	.st132{clip-path:url(#SVGID_00000169521382156580560540000004905379103470718125_);}
	.st133{clip-path:url(#SVGID_00000082335854078588392630000005131074699858328721_);}
	.st134{clip-path:url(#SVGID_00000152244530323952466270000007538321708935949473_);}
	.st135{opacity:0.25;}
	.st136{opacity:0.1;clip-path:url(#SVGID_00000008863511479970372990000016126095035147656582_);}
	.st137{clip-path:url(#SVGID_00000082330914920923915510000003003520767681269156_);}
	.st138{clip-path:url(#SVGID_00000008863511479970372990000016126095035147656582_);}
	.st139{clip-path:url(#SVGID_00000004527059177497531580000003429643212647946903_);fill:#FFFFFF;}
	.st140{clip-path:url(#SVGID_00000058580544425429831090000010745506411127974547_);fill:#0090D1;}
	.st141{clip-path:url(#SVGID_00000075157140343377402190000007612079132981836722_);}
	.st142{clip-path:url(#SVGID_00000082325927436085164320000014685182921498627486_);}
	.st143{clip-path:url(#SVGID_00000048485547904015485280000007991764301899998354_);}
	.st144{clip-path:url(#SVGID_00000182489952467073751920000009942264981493601158_);}
	.st145{clip-path:url(#SVGID_00000147207279562315534730000013166360640427644091_);}
	.st146{clip-path:url(#SVGID_00000040554251368955717530000007781445538520016277_);}
	.st147{clip-path:url(#SVGID_00000021836510961019313400000012224760769429360535_);}
	.st148{clip-path:url(#SVGID_00000075146417057178543020000015134317342499354765_);}
	.st149{clip-path:url(#SVGID_00000079469701989147401670000008338534483416905632_);}
	.st150{clip-path:url(#SVGID_00000064346070328343847720000009903920010720715429_);fill:#FFFFFF;}
	.st151{clip-path:url(#SVGID_00000064346070328343847720000009903920010720715429_);fill:#0090D1;}
	.st152{clip-path:url(#SVGID_00000064346070328343847720000009903920010720715429_);}
	.st153{clip-path:url(#SVGID_00000057106245352398132610000001613511191312845468_);}
	.st154{clip-path:url(#SVGID_00000043454913552108257110000014914054216343488389_);}
	.st155{clip-path:url(#SVGID_00000100340871702377631550000001933457381609976973_);}
	.st156{clip-path:url(#SVGID_00000103250987941453419780000013507439080605031823_);}
	.st157{clip-path:url(#SVGID_00000134229496425455419780000005510077766431720600_);}
	.st158{clip-path:url(#SVGID_00000026136908875877068990000008253296702983952532_);}
	.st159{clip-path:url(#SVGID_00000037671617848798655950000009260963980159245726_);}
	.st160{clip-path:url(#SVGID_00000145048333642720274500000007749425816031943604_);}
	.st161{clip-path:url(#SVGID_00000102529905671141521160000005182150995668571564_);}
	.st162{clip-path:url(#SVGID_00000030458437202670099910000018005871771140505526_);}
	.st163{clip-path:url(#SVGID_00000127043796310356145170000014955635498497654924_);}
	.st164{clip-path:url(#SVGID_00000166639736467213384850000014618580567971885453_);fill:#3DC2F7;}
	.st165{clip-path:url(#SVGID_00000076595753007444115290000010491446978649439123_);fill:#3DC2F7;}
	.st166{clip-path:url(#SVGID_00000124143019092685851410000003948311620329059980_);fill:#3DC2F7;}
	.st167{clip-path:url(#SVGID_00000125574024264060403300000013335745419512717191_);fill:#3DC2F7;}
	.st168{clip-path:url(#SVGID_00000052822150140383098370000001297834306410371509_);}
	.st169{clip-path:url(#SVGID_00000083084632488675159330000000568508911756843157_);}
	.st170{clip-path:url(#SVGID_00000062892561600805999620000015051952948066464931_);fill:#3DC2F7;}
	.st171{clip-path:url(#SVGID_00000176006728404108580360000018208692991458730131_);fill:#3DC2F7;}
	.st172{clip-path:url(#SVGID_00000098198276295759536860000008045605378044464288_);fill:#3DC2F7;}
	.st173{clip-path:url(#SVGID_00000026132095709284049870000011402747759130970559_);fill:#3DC2F7;}
	.st174{clip-path:url(#SVGID_00000012451869692545114350000005395757109083283386_);}
	.st175{clip-path:url(#SVGID_00000150065800390477028620000009249718226964978863_);}
	.st176{clip-path:url(#SVGID_00000124142234131181747260000012943733854676488092_);fill:#3DC2F7;}
	.st177{clip-path:url(#SVGID_00000132766440945294992570000016563351540390303414_);fill:#3DC2F7;}
	.st178{clip-path:url(#SVGID_00000156546461180141852640000007158049327160271264_);fill:#3DC2F7;}
	.st179{clip-path:url(#SVGID_00000058588443222602532920000006582154693090674084_);fill:#3DC2F7;}
	.st180{clip-path:url(#SVGID_00000093168950971031126610000009238521559070208164_);}
	.st181{clip-path:url(#SVGID_00000065759816351033797070000009998738797452833200_);}
	.st182{clip-path:url(#SVGID_00000032649810566895969470000014874215720259503525_);fill:#3DC2F7;}
	.st183{clip-path:url(#SVGID_00000163068013966187016190000012967410900316837034_);fill:#3DC2F7;}
	.st184{clip-path:url(#SVGID_00000127039023840787855680000010104450782312728234_);fill:#3DC2F7;}
	.st185{clip-path:url(#SVGID_00000018918200148099025090000003778298903530116518_);fill:#3DC2F7;}
	.st186{fill:#231F20;}
	.st187{fill:#2BB673;}
	.st188{fill:#9C182F;}
	.st189{fill:#BC955C;}
	.st190{clip-path:url(#SVGID_00000160906734544513449640000018077109986306577587_);}
	
		.st191{clip-path:url(#SVGID_00000090253295814072444400000016177355704955484808_);fill:url(#SVGID_00000006700120120044495240000011154351194600660128_);}
	.st192{fill:#A32035;}
	.st193{clip-path:url(#SVGID_00000088853103384950181950000005836688970359922344_);}
	
		.st194{clip-path:url(#SVGID_00000030474189588430152130000004353113947095396283_);fill:url(#SVGID_00000040539226733529643860000016475320379359674275_);}
	.st195{fill:#1D1718;}
	.st196{filter:url(#Adobe_OpacityMaskFilter);}
	
		.st197{clip-path:url(#SVGID_00000017505073572514043590000008724487476424840611_);fill:url(#SVGID_00000070084928461288386380000012623748597650521486_);}
	
		.st198{clip-path:url(#SVGID_00000017505073572514043590000008724487476424840611_);mask:url(#SVGID_00000128484200499174677770000012796944482260104887_);fill:#FFFFFF;}
	
		.st199{clip-path:url(#SVGID_00000142856855315787901890000002725760299118146210_);fill:url(#SVGID_00000183211530550832348210000003669118363855342981_);}
	.st200{filter:url(#Adobe_OpacityMaskFilter_00000158730190839091272520000003573349533182309818_);}
	
		.st201{clip-path:url(#SVGID_00000182523737074754157600000010993375258094162315_);fill:url(#SVGID_00000083056251630756932090000009726566892973636781_);}
	
		.st202{clip-path:url(#SVGID_00000182523737074754157600000010993375258094162315_);mask:url(#SVGID_00000063613879396277598540000007804395221921717645_);fill:url(#SVGID_00000031208360701778251140000008974542045875248536_);}
	.st203{clip-path:url(#SVGID_00000127044561287033833750000017196760459119865234_);fill:#FFFFFF;}
	.st204{filter:url(#Adobe_OpacityMaskFilter_00000032617559611628374800000013142872989603753095_);}
	
		.st205{clip-path:url(#SVGID_00000117651908140043651360000001097481783131428794_);fill:url(#SVGID_00000150795879558967312780000010831611296726257031_);}
	
		.st206{clip-path:url(#SVGID_00000117651908140043651360000001097481783131428794_);mask:url(#SVGID_00000141435544478583845530000000909645963408163491_);fill:#FFFFFF;}
	.st207{clip-path:url(#SVGID_00000113321335908956962890000002292889274307527097_);fill:none;stroke:#000000;stroke-width:1.3521;}
	.st208{filter:url(#Adobe_OpacityMaskFilter_00000014635177857677826380000005275821088670005667_);}
	
		.st209{clip-path:url(#SVGID_00000126281332261212629590000015078714664016990900_);fill:url(#SVGID_00000084525424858356243500000003652981956099156378_);}
	
		.st210{clip-path:url(#SVGID_00000126281332261212629590000015078714664016990900_);mask:url(#SVGID_00000125564486238690650420000010792213933807393157_);fill:none;stroke:#000000;stroke-width:1.3521;}
	.st211{fill:url(#SVGID_00000126305379324400797800000014128284820021055634_);}
	.st212{opacity:0.84;}
	.st213{fill:#FFFFFF;stroke:#FFFFFF;stroke-width:0.1528;stroke-miterlimit:10;}
	.st214{fill:#E7FBFF;}
	.st215{clip-path:url(#SVGID_00000140711824974186805780000015298557978559131790_);}
	.st216{clip-path:url(#SVGID_00000068668999739999132190000005575334175320177087_);}
	.st217{clip-path:url(#SVGID_00000126307205770719350730000015105210876663246501_);}
	.st218{clip-path:url(#SVGID_00000048470675339413054710000009929741943067962047_);fill:#F2F7FB;}
	.st219{clip-path:url(#SVGID_00000048470675339413054710000009929741943067962047_);}
	.st220{clip-path:url(#SVGID_00000099643178258709516770000011238031928893361084_);fill:#FFFFFF;}
	.st221{clip-path:url(#SVGID_00000016069764579866273880000001458419219778569348_);fill:#EEEEEE;}
	.st222{clip-path:url(#SVGID_00000162344180731077505100000008101589052348447413_);fill:#EEEEEE;}
	.st223{clip-path:url(#SVGID_00000011001138930706098320000001308311395507443636_);fill:#0090D1;}
	.st224{clip-path:url(#SVGID_00000021798253665136095720000013657896264016678046_);fill:#EEEEEE;}
	.st225{clip-path:url(#SVGID_00000021100750103679790440000015960919796715996301_);fill:#EEEEEE;}
	.st226{clip-path:url(#SVGID_00000098190031131471883100000009647584182112231854_);}
	.st227{clip-path:url(#SVGID_00000145767790910483979410000001287470817408850309_);fill:#0090D1;}
	.st228{clip-path:url(#SVGID_00000145767790910483979410000001287470817408850309_);fill:#FFFFFF;}
	.st229{clip-path:url(#SVGID_00000181054490583779061860000016449235835214348700_);}
	.st230{clip-path:url(#SVGID_00000103247000272928483370000009157602754812303754_);fill:#F2F2F2;}
	.st231{clip-path:url(#SVGID_00000103247000272928483370000009157602754812303754_);fill:#FFFFFF;}
	.st232{clip-path:url(#SVGID_00000103247000272928483370000009157602754812303754_);fill:#0090D1;}
	.st233{clip-path:url(#SVGID_00000103247000272928483370000009157602754812303754_);fill:#E5E9EA;}
	.st234{clip-path:url(#SVGID_00000103247000272928483370000009157602754812303754_);fill:#A6A6A6;}
	.st235{clip-path:url(#SVGID_00000103247000272928483370000009157602754812303754_);fill:#A5BDC6;}
	.st236{clip-path:url(#SVGID_00000103247000272928483370000009157602754812303754_);}
	.st237{clip-path:url(#SVGID_00000103247000272928483370000009157602754812303754_);fill:#BABABA;}
	.st238{clip-path:url(#SVGID_00000103247000272928483370000009157602754812303754_);fill:#263238;}
	.st239{clip-path:url(#SVGID_00000103247000272928483370000009157602754812303754_);fill:#D3766A;}
	.st240{clip-path:url(#SVGID_00000103247000272928483370000009157602754812303754_);fill:#3DC2F7;}
	.st241{opacity:0.1;clip-path:url(#SVGID_00000103247000272928483370000009157602754812303754_);}
	.st242{clip-path:url(#SVGID_00000103247000272928483370000009157602754812303754_);fill:#FF97B8;}
	.st243{clip-path:url(#SVGID_00000040548922990437707720000014596781882425358014_);}
	
		.st244{clip-path:url(#SVGID_00000108288996625077780600000013879840704461462674_);fill:none;stroke:#FFFFFF;stroke-width:0.2833;stroke-miterlimit:10;}
	.st245{clip-path:url(#SVGID_00000108288996625077780600000013879840704461462674_);fill:#FFFFFF;}
	.st246{clip-path:url(#SVGID_00000146466526753524784170000006926767218071331721_);}
	.st247{clip-path:url(#SVGID_00000133504304113685364760000004326492622322675883_);fill:#3DC2F7;}
	.st248{clip-path:url(#SVGID_00000047059622805264897470000000874965356240429201_);}
	
		.st249{clip-path:url(#SVGID_00000115472592617952954740000012288984226071304102_);fill:none;stroke:#3DC2F7;stroke-width:0.3859;stroke-linecap:round;stroke-linejoin:round;}
	.st250{clip-path:url(#SVGID_00000036960504251282060720000008876281772904384148_);}
	
		.st251{clip-path:url(#SVGID_00000015336253294318843980000013666778497437897359_);fill:none;stroke:#3DC2F7;stroke-width:0.4144;stroke-linejoin:round;}
	.st252{clip-path:url(#SVGID_00000015336253294318843980000013666778497437897359_);fill:#3DC2F7;}
	
		.st253{clip-path:url(#SVGID_00000015336253294318843980000013666778497437897359_);fill:none;stroke:#3DC2F7;stroke-width:0.4144;stroke-linecap:round;stroke-linejoin:round;}
	.st254{clip-path:url(#SVGID_00000131361996444769245690000014864450725561547422_);fill:#FFFFFF;}
	.st255{clip-path:url(#SVGID_00000056391702632147039210000009423341333856317840_);}
	
		.st256{clip-path:url(#SVGID_00000099662267200504938900000004547943279568451519_);fill:none;stroke:#269126;stroke-width:0.189;stroke-miterlimit:10;}
	.st257{clip-path:url(#SVGID_00000034090428594790642560000011611326833852825018_);}
	.st258{clip-path:url(#SVGID_00000097469430604154348210000016665799302682617262_);}
	.st259{clip-path:url(#SVGID_00000021819091554946787790000009461396674281925268_);fill:#3DC2F7;}
	.st260{clip-path:url(#SVGID_00000137840438504549517210000002469012348592692897_);fill:#3DC2F7;}
	.st261{clip-path:url(#SVGID_00000137849326224911453590000005879606787422263231_);fill:#3DC2F7;}
	.st262{clip-path:url(#SVGID_00000000935760033690521320000012533152563814584726_);fill:#3DC2F7;}
	.st263{clip-path:url(#SVGID_00000176017028392181989490000009058108194901635504_);}
	.st264{clip-path:url(#SVGID_00000139999634704379049320000011984773589529050522_);}
	.st265{clip-path:url(#SVGID_00000072277241528742540120000015434060504841859243_);fill:#3DC2F7;}
	.st266{clip-path:url(#SVGID_00000168819914746634867030000009735512475229326755_);fill:#3DC2F7;}
	.st267{clip-path:url(#SVGID_00000115512178558271108470000005262341044273559683_);fill:#3DC2F7;}
	.st268{clip-path:url(#SVGID_00000005225875881922442680000016437429180453631678_);fill:#3DC2F7;}
	.st269{clip-path:url(#SVGID_00000054974175224405804300000006197488631754857390_);}
	.st270{clip-path:url(#SVGID_00000062892327883007587260000011178020144225701781_);}
	.st271{clip-path:url(#SVGID_00000138555179644039612950000017490064444770260655_);fill:#3DC2F7;}
	.st272{clip-path:url(#SVGID_00000129207008375832010880000008657082713951226779_);fill:#3DC2F7;}
	.st273{clip-path:url(#SVGID_00000052802714878194436390000011598106515197356446_);fill:#3DC2F7;}
	.st274{clip-path:url(#SVGID_00000109002028816870841470000003381576342532253615_);fill:#3DC2F7;}
	.st275{clip-path:url(#SVGID_00000046317521090077803680000001541668650276396956_);}
	.st276{clip-path:url(#SVGID_00000057127141066479883830000017943991223393417107_);}
	.st277{clip-path:url(#SVGID_00000111193288053498941230000014841488034836795049_);fill:#3DC2F7;}
	.st278{clip-path:url(#SVGID_00000030453134532618314400000009746901121564000645_);fill:#3DC2F7;}
	.st279{clip-path:url(#SVGID_00000140701915472875031360000000379981999028394114_);fill:#3DC2F7;}
	.st280{clip-path:url(#SVGID_00000104704983296690604790000001825684658190126488_);fill:#3DC2F7;}
	.st281{clip-path:url(#SVGID_00000080189001721520138060000003523211252488053638_);}
	.st282{clip-path:url(#SVGID_00000147905543095193134410000016833421193426537650_);}
	.st283{clip-path:url(#SVGID_00000122697088865508072450000016899094787068074399_);fill:#3DC2F7;}
	.st284{clip-path:url(#SVGID_00000071518320075732697280000011273716371679084214_);fill:#3DC2F7;}
	.st285{clip-path:url(#SVGID_00000124134891912477614580000005053035052741794221_);fill:#3DC2F7;}
	.st286{clip-path:url(#SVGID_00000098930983862397959410000011658975353799918492_);fill:#3DC2F7;}
	.st287{fill:#26B1E7;}
	.st288{fill:#FDC600;}
	.st289{fill:#57A333;}
	.st290{fill:#E53212;}
	.st291{fill:#F9C081;}
	.st292{filter:url(#Adobe_OpacityMaskFilter_00000148622053944064076310000015947434957500134831_);}
	
		.st293{clip-path:url(#SVGID_00000011718488509934222080000016830642709742401456_);fill:url(#SVGID_00000124144439309127953610000002431423085403249058_);}
	
		.st294{clip-path:url(#SVGID_00000011718488509934222080000016830642709742401456_);mask:url(#SVGID_00000039842548247043400980000018086622246093014974_);fill:#FFFFFF;}
	
		.st295{clip-path:url(#SVGID_00000176012126416350235610000016850940959150066618_);fill:url(#SVGID_00000091720334703855842210000008409580228339179673_);}
	.st296{filter:url(#Adobe_OpacityMaskFilter_00000078764760128629322050000006802373731922590382_);}
	
		.st297{clip-path:url(#SVGID_00000064331095419138509540000003018077557280347831_);fill:url(#SVGID_00000178905408879898926080000002123718179882163638_);}
	
		.st298{clip-path:url(#SVGID_00000064331095419138509540000003018077557280347831_);mask:url(#SVGID_00000148623748854609214990000017685858065699642527_);fill:url(#SVGID_00000021811967971545377560000012004617272536651696_);}
	.st299{clip-path:url(#SVGID_00000107563665031091813520000009086774508717397931_);fill:none;stroke:#FFFFFF;stroke-width:1.3521;}
	.st300{filter:url(#Adobe_OpacityMaskFilter_00000134946561662756217990000015590849885800305804_);}
	
		.st301{clip-path:url(#SVGID_00000129205658416447565780000011856763157862418095_);fill:url(#SVGID_00000044178920849555933460000014455644415765134482_);}
	
		.st302{clip-path:url(#SVGID_00000129205658416447565780000011856763157862418095_);mask:url(#SVGID_00000099659213984960931100000000598059487111346338_);fill:none;stroke:#FFFFFF;stroke-width:1.3521;}
	.st303{clip-path:url(#SVGID_00000050627405276243273780000013876729469126427282_);}
	.st304{clip-path:url(#SVGID_00000031169382933614591230000018331284242753121922_);fill:#F4F6F9;}
	.st305{clip-path:url(#SVGID_00000031169382933614591230000018331284242753121922_);}
	.st306{clip-path:url(#SVGID_00000129175948173872772760000008032348021790458243_);}
	.st307{fill:#9CCC65;}
	.st308{fill:#4DB6AC;}
	.st309{fill:#C6CE29;}
	.st310{enable-background:new    ;}
	.st311{clip-path:url(#SVGID_00000149350589079688344090000009025619559058432146_);enable-background:new    ;}
	.st312{clip-path:url(#SVGID_00000124862413775002233490000013433267977511163545_);}
	.st313{fill:#424242;}
	.st314{fill:none;stroke:#000000;stroke-width:0.767;stroke-miterlimit:10;}
	.st315{fill:none;stroke:#000000;stroke-width:0.767;stroke-linecap:round;stroke-miterlimit:10;}
	.st316{clip-path:url(#SVGID_00000029755574895679233140000016996759563762477245_);enable-background:new    ;}
	.st317{clip-path:url(#SVGID_00000055680916812980767790000010991986797756816293_);}
	.st318{clip-path:url(#SVGID_00000110430149091499062540000003030927497419506587_);}
	.st319{clip-path:url(#SVGID_00000018205915858870522800000005850344688395569032_);}
	.st320{clip-path:url(#SVGID_00000051360258729350460650000005723522823299256765_);enable-background:new    ;}
	.st321{clip-path:url(#SVGID_00000108990887367788277730000018164520011927242937_);}
	.st322{clip-path:url(#SVGID_00000114044583475615750000000015674197280166675894_);}
	.st323{clip-path:url(#SVGID_00000148658489123343032920000005553414707366876597_);}
	.st324{clip-path:url(#SVGID_00000155106539177510803510000004346896804168094372_);enable-background:new    ;}
	.st325{clip-path:url(#SVGID_00000114780478995752990230000007201431682474788992_);}
	.st326{clip-path:url(#SVGID_00000101097396234925387940000007492166792538430613_);enable-background:new    ;}
	.st327{clip-path:url(#SVGID_00000152224756814901762630000006478204457840042115_);}
	.st328{clip-path:url(#SVGID_00000024706954211021060530000009869165475940952766_);enable-background:new    ;}
	.st329{clip-path:url(#SVGID_00000018196648525245535600000017386739172545861566_);}
	.st330{clip-path:url(#SVGID_00000135662933264731256970000004369461601586853300_);enable-background:new    ;}
	.st331{clip-path:url(#SVGID_00000008149343725342161460000003708053893299851911_);}
	.st332{clip-path:url(#SVGID_00000114034909484347528050000004136359091460750744_);enable-background:new    ;}
	.st333{fill:#FBC02D;}
	.st334{clip-path:url(#SVGID_00000127038613839888655890000017129683305594967948_);}
	.st335{clip-path:url(#SVGID_00000119824401875810743960000014727843518457710263_);}
	.st336{clip-path:url(#SVGID_00000116919686360133770170000004085377564891743120_);}
	.st337{clip-path:url(#SVGID_00000062190167895298396710000005152226126839314343_);}
	.st338{fill:none;stroke:#66BB6A;stroke-width:0.5;stroke-miterlimit:10;}
	.st339{fill:none;stroke:#66BB6A;stroke-miterlimit:10;}
	.st340{fill:none;stroke:#FFFFFF;stroke-width:2;stroke-linecap:round;stroke-linejoin:round;stroke-miterlimit:10;}
	.st341{opacity:0.5;}
	.st342{fill:url(#SVGID_00000077302241642270439390000018365107196390095771_);}
	.st343{fill:none;stroke:#FFFFFF;stroke-width:0.5;stroke-miterlimit:10;}
	.st344{fill:none;stroke:#66BB6A;stroke-width:1.7996;stroke-miterlimit:10;}
	.st345{fill:#FAFAFA;}
	.st346{fill:none;stroke:#FFFFFF;stroke-miterlimit:10;}
	.st347{fill:url(#SVGID_00000081641929351323872830000017237193839143069879_);}
</style>
<g>
	<g>
		<g>
			<rect x="225.459" class="st313" width="2.541" height="57.192"/>
			<g>
				<path class="st313" d="M261.417,1.342h3.769l10.596,25.061h-3.915l-2.554-6.317h-12.278l-2.547,6.317h-3.772L261.417,1.342z
					 M263.177,4.717l-4.991,12.421h9.984L263.177,4.717z"/>
				<path class="st313" d="M279.187,1.342h6.569c5.136,0,9.411,1.795,9.411,7.506c0,5.566-4.346,7.536-8.871,7.536h-3.519v10.019
					h-3.589V1.342z M282.776,13.227h3.554c2.226,0,5.03-1.113,5.03-4.418c0-3.159-3.307-4.31-5.529-4.31h-3.055V13.227z"/>
				<path class="st313" d="M299.151,1.342h6.571c5.134,0,9.406,1.795,9.406,7.506c0,5.566-4.349,7.536-8.868,7.536h-3.52v10.019
					h-3.589V1.342z M302.74,13.227h3.555c2.231,0,5.025-1.113,5.025-4.418c0-3.159-3.305-4.31-5.529-4.31h-3.051V13.227z"/>
				<path class="st313" d="M256.146,30.372h1.565l4.394,10.398h-1.623l-1.059-2.623h-5.095l-1.054,2.623h-1.563L256.146,30.372z
					 M256.875,31.77l-2.07,5.153h4.14L256.875,31.77z M257.248,27.467h1.623l-1.948,2.146h-0.996L257.248,27.467z"/>
				<path class="st313" d="M263.524,30.372h2.552c2.049,0,4.032,0.325,4.032,2.815c0,1.267-0.938,2.161-2.144,2.369v0.031
					c0.46,0.178,0.686,0.397,1.016,1.042l1.961,4.142h-1.697l-1.593-3.606c-0.464-1.014-0.95-1.014-1.745-1.014h-0.894v4.62h-1.489
					V30.372z M265.012,34.84h1.267c1.415,0,2.25-0.625,2.25-1.625c0-0.939-0.716-1.534-2.085-1.534h-1.432V34.84z"/>
				<polygon class="st313" points="272.796,30.372 278.616,30.372 278.616,31.681 274.285,31.681 274.285,34.723 278.228,34.723 
					278.228,36.034 274.285,36.034 274.285,39.458 278.616,39.458 278.616,40.771 272.796,40.771 				"/>
				<path class="st313" d="M284.295,30.372h1.565l4.394,10.398h-1.621l-1.061-2.623h-5.095l-1.055,2.623h-1.562L284.295,30.372z
					 M285.024,31.772l-2.07,5.152h4.14L285.024,31.772z"/>
				<path class="st313" d="M295.82,30.372h3.068c3.084,0,5.54,1.903,5.54,5.106c0,3.487-2.113,5.292-5.54,5.292h-3.068V30.372z
					 M297.31,39.458h1.56c2.559,0,3.978-1.239,3.978-3.919c0-2.428-1.654-3.858-3.798-3.858h-1.74V39.458z"/>
				<polygon class="st313" points="306.741,30.372 312.565,30.372 312.565,31.681 308.23,31.681 308.23,34.723 312.179,34.723 
					312.179,36.034 308.23,36.034 308.23,39.458 312.565,39.458 312.565,40.771 306.741,40.771 				"/>
				<path class="st313" d="M319.006,30.372h2.73c2.131,0,3.897,0.747,3.897,3.112c0,2.307-1.799,3.127-3.676,3.127h-1.463v4.16
					h-1.489V30.372z M320.494,35.303h1.478c0.924,0,2.085-0.462,2.085-1.834c0-1.31-1.376-1.788-2.296-1.788h-1.267V35.303z"/>
				<path class="st313" d="M331.848,30.197c3.16,0,5.009,2.289,5.009,5.373c0,3.159-1.836,5.377-5.009,5.377
					c-3.168,0-5.002-2.218-5.002-5.377C326.846,32.486,328.693,30.197,331.848,30.197 M331.848,39.634
					c2.402,0,3.429-1.997,3.429-4.064c0-2.116-1.133-4.079-3.429-4.067c-2.289-0.013-3.424,1.951-3.424,4.067
					C328.423,37.637,329.452,39.634,331.848,39.634"/>
				<polygon class="st313" points="338.965,30.372 340.45,30.372 340.45,39.458 344.803,39.458 344.803,40.771 338.965,40.771 				
					"/>
				<path class="st313" d="M347.513,27.467h1.625l-1.949,2.146h-0.998L347.513,27.467z M346.43,30.372h1.484v10.401h-1.484V30.372z"
					/>
				<polygon class="st313" points="352.643,31.681 349.409,31.681 349.409,30.372 357.365,30.372 357.365,31.681 354.129,31.681 
					354.129,40.771 352.643,40.771 				"/>
				<rect x="358.856" y="30.372" class="st313" width="1.493" height="10.401"/>
				<path class="st313" d="M370.178,32.084c-0.651-0.388-1.384-0.582-2.144-0.582c-2.4,0-3.993,1.73-3.993,4.067
					c0,2.441,1.758,4.062,3.919,4.062c0.747,0,1.743-0.191,2.266-0.503l0.087,1.445c-0.786,0.328-1.758,0.373-2.37,0.373
					c-3.294,0-5.481-2.113-5.481-5.425c0-3.201,2.322-5.325,5.499-5.325c0.803,0,1.595,0.113,2.337,0.443L370.178,32.084z"/>
				<path class="st313" d="M375.399,30.372h1.56l4.394,10.398h-1.621l-1.061-2.623h-5.091l-1.059,2.623h-1.563L375.399,30.372z
					 M376.126,31.772l-2.073,5.152h4.145L376.126,31.772z"/>
				<path class="st313" d="M387.586,31.935c-0.759-0.297-1.172-0.432-1.948-0.432c-0.836,0-1.819,0.295-1.819,1.389
					c0,1.992,4.466,1.529,4.466,4.956c0,2.218-1.716,3.099-3.798,3.099c-0.733,0-1.441-0.211-2.131-0.432l0.15-1.386
					c0.506,0.208,1.4,0.506,2.163,0.506c0.842,0,2.036-0.475,2.036-1.699c0-2.322-4.468-1.682-4.468-4.913
					c0-1.849,1.463-2.825,3.344-2.825c0.682,0,1.498,0.113,2.216,0.367L387.586,31.935z"/>
				<path class="st313" d="M252.767,45.276h2.723c2.131,0,3.902,0.742,3.902,3.11c0,2.309-1.801,3.127-3.676,3.127h-1.462v4.157
					h-1.486V45.276z M254.254,50.204h1.473c0.924,0,2.09-0.464,2.09-1.831c0-1.311-1.371-1.788-2.296-1.788h-1.267V50.204z"/>
				<path class="st313" d="M269.229,51.362c0,2.923-1.475,4.487-4.034,4.487c-2.565,0-4.036-1.565-4.036-4.487v-6.087h1.489v5.896
					c0,1.994,0.625,3.37,2.548,3.37c1.918,0,2.545-1.376,2.545-3.37v-5.896h1.489V51.362z M265.535,42.368h1.626l-1.949,2.146
					h-1.007L265.535,42.368z"/>
				<path class="st313" d="M271.809,45.276h2.817c2.161,0,3.65,0.701,3.65,2.621c0,1.43-0.838,2.144-2.148,2.47v0.032
					c1.415,0.117,2.417,1.044,2.417,2.5c0,2.237-1.849,2.771-3.965,2.771h-2.771V45.276z M273.297,49.711h0.822
					c1.448,0,2.667-0.13,2.667-1.666c0-1.235-1.059-1.547-1.922-1.547h-1.567V49.711z M273.297,54.45h1.12
					c1.341,0,2.548-0.287,2.548-1.686c0-1.606-1.41-1.829-2.695-1.829h-0.972V54.45z"/>
				<polygon class="st313" points="280.992,45.276 282.479,45.276 282.479,54.361 286.829,54.361 286.829,55.67 280.992,55.67 				
					"/>
				<rect x="288.459" y="45.276" class="st313" width="1.491" height="10.397"/>
				<path class="st313" d="M299.78,46.986c-0.651-0.382-1.385-0.579-2.144-0.579c-2.4,0-3.993,1.729-3.993,4.064
					c0,2.443,1.758,4.069,3.919,4.069c0.742,0,1.741-0.193,2.261-0.508l0.096,1.446c-0.79,0.33-1.758,0.373-2.374,0.373
					c-3.294,0-5.481-2.113-5.481-5.42c0-3.203,2.322-5.334,5.499-5.334c0.805,0,1.597,0.121,2.339,0.447L299.78,46.986z"/>
				<path class="st313" d="M305.001,45.276h1.558l4.396,10.394h-1.623l-1.059-2.619h-5.091l-1.059,2.619h-1.566L305.001,45.276z
					 M305.73,46.676l-2.07,5.151h4.136L305.73,46.676z"/>
				<path class="st313" d="M317.187,46.838c-0.759-0.3-1.176-0.432-1.949-0.432c-0.835,0-1.818,0.297-1.818,1.385
					c0,1.996,4.466,1.536,4.466,4.96c0,2.218-1.717,3.099-3.798,3.099c-0.729,0-1.443-0.21-2.131-0.431l0.15-1.387
					c0.501,0.211,1.4,0.508,2.164,0.508c0.846,0,2.035-0.482,2.035-1.697c0-2.326-4.468-1.684-4.468-4.917
					c0-1.845,1.463-2.83,3.34-2.83c0.681,0,1.501,0.124,2.217,0.371L317.187,46.838z"/>
			</g>
			<g>
				<path class="st313" d="M21.866,2.853C9.815,2.853,0,14.417,0,28.595c0,14.183,9.815,25.739,21.866,25.739
					c12.042,0,21.862-11.557,21.862-25.739C43.728,14.417,33.909,2.853,21.866,2.853z M21.866,51.192
					c-10.235,0-18.584-10.142-18.584-22.611c0-12.453,8.349-22.587,18.584-22.587c10.233,0,18.581,10.135,18.581,22.587
					C40.448,41.05,32.099,51.192,21.866,51.192z"/>
				<g>
					<path class="st313" d="M19.427,29.48c-0.014-0.009,0.226-0.063,0.315-0.056c0.02,0.001,0.041-0.017,0.062-0.043
						c0.003-0.004,0.007-0.008,0.011-0.012c0.014-0.021,0.026-0.054,0.039-0.085c0.008-0.022,0.017-0.045,0.023-0.067
						c0.009-0.038,0.016-0.079,0.019-0.122c0.001-0.019,0.002-0.037,0.002-0.055c0-0.046-0.008-0.093-0.019-0.139
						c-0.004-0.017-0.007-0.034-0.012-0.05c-0.039-0.107-0.094-0.19-0.162-0.249c-0.016-0.013-0.033-0.028-0.05-0.038
						c-0.02-0.013-0.042-0.022-0.065-0.03c-0.033-0.012-0.066-0.02-0.101-0.024c-0.028-0.003-0.056-0.006-0.085-0.003
						c-0.018,0.001-0.037,0.002-0.055,0.004c-0.1,0.014-0.186,0.032-0.25,0.048c-0.019,0.005-0.038,0.01-0.057,0.015
						c-0.043,0.013-0.074,0.022-0.074,0.022l-0.001-0.002c-0.195,0.052-0.384,0.087-0.536-0.026
						c-0.052-0.121-0.131-0.208-0.247-0.224c-0.334,0.007-0.383,0.43-0.654,0.516c-0.233,0.203-0.411,0.49-0.488,0.799l0.11,0.847
						c0.096,0.121,0.145,0.275,0.28,0.336l0.306-0.425l0.367-0.278c0.547-0.014,0.861-0.486,1.328-0.654
						C19.431,29.484,19.427,29.482,19.427,29.48z M18.642,29.589c-0.068,0.033-0.142,0.07-0.219,0.07h-0.045
						c-0.154-0.094,0.052-0.301,0-0.451l0.059-0.07c0.138-0.054,0.299-0.086,0.418-0.028L18.642,29.589z"/>
					<path class="st313" d="M37.369,26.956c-0.038-0.07-0.103-0.149-0.196-0.149c-1.354,0.012-2.731-0.569-4.058-1.055l-1.186-0.516
						c0-0.147,0.049-0.311-0.075-0.399c-1.91-0.275-3.769-1.513-5.741-0.77c-1.914-0.21-3.217,0.71-4.184,2.218
						c-0.224,0.124-0.394,0.378-0.665,0.378c-1.139-0.794-0.756-2.911-2.199-3.556c-0.687-0.57-1.216-1.186-1.844-1.767
						c-0.621-0.84-1.795-0.738-2.788-0.698c-0.35,0.028-0.687-0.068-1.027,0.056c-0.084,0.042-0.122,0.133-0.122,0.217
						c0.304,0.271,0.827,0.154,1.13,0.278l-0.063,0.065c-0.035,0.038-0.08,0.117-0.035,0.178c0.247,0.289,0.708,0.058,0.985,0.215
						c-0.066,0.056-0.175,0.086-0.21,0.152c-0.068,0.119,0.019,0.212,0.051,0.329l-0.444-0.217
						c-0.135-0.425-0.798-0.079-1.018-0.465c-0.028-0.079-0.084-0.142-0.117-0.191l-0.619-0.217l-0.026-0.051
						c0.028-0.041,0.042-0.089,0.043-0.135c0.001-0.046-0.011-0.089-0.034-0.119c-1.492-0.187-2.944,0.096-4.413-0.18
						c-0.063,0.033-0.063,0.063-0.093,0.079c-0.026,0.063-0.049,0.135,0,0.196c0.215,0.427,0.761,0.544,1.169,0.637
						c-0.126,0.079-0.264,0-0.376,0.079c-0.047,0.301,0.355,0.397,0.569,0.584l0.92,0.131l-0.696,0.075
						c-0.026,0.07-0.026,0.136-0.009,0.201c0.273,0.357,0.803,0.458,1.163,0.532c-0.021,0.058-0.038,0.058-0.07,0.086
						c-0.061,0.065-0.061,0.194-0.016,0.285c0.353,0.301,0.847,0.21,1.212,0.25c-0.024,0.089,0,0.194,0.054,0.264
						c0.49,0.301,1.076,0.086,1.557,0.049c-0.21,0.175-0.544,0.128-0.7,0.338c-0.045,0.124-0.045,0.229,0.051,0.339
						c0.379,0.236,0.796,0.14,1.2,0c0.016,0.061-0.019,0.14,0.038,0.161c0.406,0.212,0.866-0.033,1.273-0.128v0.142
						c0.208,0.219,0.565,0.198,0.819,0.138l0.537,0.357c-0.038,0.068-0.084,0.145-0.084,0.205c-0.028,0.196,0.047,0.42,0.213,0.521
						c0.147,0.065,0.282-0.035,0.394-0.1l0.042,0.005c-0.075,0.175,0.023,0.332,0.047,0.488c0.084,0.178,0.15,0.338,0.329,0.338
						c0.093-0.028,0.093-0.131,0.124-0.219c0.042-0.084,0.061-0.18,0.117-0.208c0.079,0.128,0.012,0.296,0.124,0.439
						c0.208,0.159,0.493,0.299,0.726,0.257c0.042-0.054,0.072-0.124,0.13-0.142c0.059,0.273,0.308,0.422,0.495,0.563l0.014,0.042
						c-0.327,0.205-0.724,0.299-0.925,0.563c-0.07,0.133-0.075,0.261-0.009,0.409c0.032,0.005,0.089-0.032,0.097-0.059
						c0.035-0.072,0.092-0.21,0.127-0.223c0.018-0.007,0.071-0.036,0.142-0.065c0.01-0.004,0.019-0.008,0.03-0.012
						c0.045-0.017,0.097-0.033,0.153-0.046c0.015-0.003,0.029-0.004,0.043-0.007c0.034-0.006,0.068-0.014,0.104-0.016
						c0.007,0,0.03,0.002,0.045,0.003c0.001,0,0.001,0,0.002,0c0.045,0.003,0.107,0.01,0.168,0.038
						c0.025-0.014,0.04-0.027,0.056-0.041c0.021-0.018,0.043-0.038,0.052-0.066c0.01-0.035,0.004-0.062,0.01-0.092
						c0.002-0.005,0-0.013,0.004-0.017c0.001-0.001,0.002-0.002,0.003-0.003c0.003-0.006,0-0.011,0.006-0.018
						c0.021-0.026,0.063-0.066,0.113-0.102c0.052-0.037,0.108-0.063,0.158-0.067c0,0-0.125,0.207-0.107,0.327
						c0.001,0.004,0.001,0.008,0.002,0.012c0.008,0.049,0.027,0.085,0.048,0.119c0.015,0.024,0.033,0.046,0.051,0.069
						c0.056,0.061,0.117,0.119,0.163,0.204c0.028,0.044,0.05,0.089,0.057,0.142c-0.076,0.246-0.036,0.512-0.06,0.727
						c-0.003,0.035-0.012,0.063-0.02,0.089c-0.007,0.026-0.008,0.056-0.018,0.08l-0.247,0.127c-0.082,0.047-0.153,0.09-0.207,0.109
						l-0.022,0.055l0.066,0.068c0.777,0.28,1.562,0.014,2.327-0.184l-0.221,0.465c-0.059,0.103-0.089,0.208-0.077,0.294
						c0.033,0.075,0.135,0.128,0.212,0.138c0.075-0.023,0.089-0.079,0.159-0.098c0.182,0.098,0.25,0.296,0.427,0.296
						c0.25-0.051,0.212-0.336,0.332-0.451c0.07,0.114,0.007,0.268,0.093,0.385c0.105,0.033,0.182,0.1,0.259,0.033
						c0.168-0.07,0.226-0.303,0.271-0.446c0.261,0.217,0.397,0.549,0.756,0.658h0.061c0.061-0.028,0.07-0.049,0.089-0.086
						c0.028-0.131-0.089-0.271-0.058-0.39l0.514,0.332c0.156,0.058,0.376-0.068,0.46-0.18c-0.033-0.694-0.588-1.259-0.897-1.852
						l-0.327-0.548c0.435,0.023,0.348-0.584,0.715-0.705c0.868,0.058,1.574,1.254,2.547,0.934c0.142-0.206-0.129-0.301-0.161-0.437
						l0.037-0.026c0.402,0.166,0.731,0.593,1.212,0.462l0.035-0.012l-0.07-0.539c0.738,0.588,1.702,0.495,2.218,1.321
						c0.547,0.413,1.341,0.827,2.022,0.78l0.033-0.056c-0.009-0.28-0.372-0.327-0.495-0.509l-0.005-0.073
						c0.5,0.073,1.035,0.367,1.532,0.238c0.081-0.474-0.518-0.663-0.734-0.96l0.031-0.042l0.43,0.282
						c0.306,0.28,0.731,0.633,1.193,0.5c0.014-0.045,0.073-0.035,0.073-0.07c0.1-0.318-0.213-0.525-0.32-0.824l-0.621-0.588
						c0.826,0.196,1.639,0.621,2.519,0.271c0.072-0.089,0.222-0.089,0.254-0.203c0.08-0.091-0.026-0.234-0.061-0.296
						c-0.177-0.096-0.351-0.026-0.486-0.096c0.388,0,0.81-0.026,1.116-0.273C37.359,27.206,37.429,27.094,37.369,26.956z
						 M17.246,24.098c-0.213-0.049-0.456-0.112-0.642-0.271c-0.023-0.086,0.052-0.194-0.033-0.287l-0.458-0.247
						c-0.037-0.105,0.126-0.154,0.08-0.285c-0.098-0.187-0.558-0.115-0.562-0.427c0.037-0.117,0.175-0.166,0.311-0.206
						c0.061-0.014,0.135,0.04,0.205,0.03l0.009,0.03c-0.061,0.1-0.121,0.194-0.061,0.329c0.08,0.194,0.303,0.135,0.486,0.243
						c-0.033,0.131-0.126,0.336,0.061,0.45l0.292,0.121c0.016,0.07-0.045,0.131-0.035,0.215c0.098,0.117,0.2,0.226,0.383,0.254
						L17.246,24.098z M20.167,26.26c-0.52-0.28-0.672-0.995-0.946-1.571c-0.063-0.495-0.485-0.668-0.735-1.013l-0.243-0.383
						c0.336,0.287,0.703,0.637,1.13,0.878c0.266,0.67,0.36,1.483,0.882,1.985l0.024,0.082L20.167,26.26z M21.96,27.108
						c-0.161,0.126-0.315,0.269-0.446,0.479l-0.105,0.25c-0.033,0.009-0.065,0.028-0.117,0.028l-0.362-0.156
						c0.446-0.332,1.004-0.633,1.405-0.967C22.249,26.886,22.128,27.012,21.96,27.108z M23.188,25.555
						c0.119-0.32,0.329-0.595,0.696-0.668c0.705-0.147,1.405-0.079,2.127-0.184C25.121,25.053,23.916,24.82,23.188,25.555z
						 M29.323,25.961c-0.093,0.009-0.147-0.007-0.205-0.009l-0.217-0.273c-0.255-0.219-0.535-0.355-0.826-0.472
						c-0.301-0.077-0.53-0.198-0.696-0.353c0.731,0.308,1.73,0.549,2.531,0.843L29.323,25.961z"/>
				</g>
				<path class="st313" d="M6.925,18.301c0,0,1.181-0.497,1.94,0.39c0.759,0.885,1.735-1.469,3.082-0.39
					c0,0,1.861,0.756,4.041-0.745c2.185-1.503,3.135-4.102,5.669-3.92c2.535,0.182,1.989,0.203,4.314,3.259
					c2.325,3.056,3.705,2.045,4.116,2.37c0.411,0.327,0.759,0.537,1.886,0.089c1.123-0.453,1.198,0.675,1.721,0.747
					c0.528,0.075,1.2-0.072,2.101-0.072c0.901,0,1.499-0.152,1.499-0.152S32.643,7.581,21.845,7.581
					C11.573,7.581,6.925,18.301,6.925,18.301"/>
				<path class="st313" d="M29.813,34.917c-1.903-0.345-3.866-0.502-5.846,0.084c-0.883,0.231-1.588,0.448-2.26,0.747
					c-1.284-0.451-3.684-1.45-6.677-1.214c-0.336,0.415-0.873,0.327-1.275,0.406l-0.084,3.931c0.052,2.001-0.07,3.99,0.056,5.995
					c0.518,0.101,1.049,0.178,1.58,0.255l-0.104-6.794v-0.89c0.784-0.345,1.755-0.098,2.617-0.058
					c1.212,0.203,2.421,0.598,3.626,1.116l0.084,6.612l-0.03,0.727c0.102,0.013,0.208,0.023,0.31,0.036h0.005
					c0.131-0.014,0.261-0.024,0.392-0.038c-0.049-2.445-0.071-4.897-0.062-7.365c1.653-0.738,3.378-1.128,5.066-1.146l1.324,0.131
					l0.087,7.791c0.41-0.046,0.821-0.087,1.23-0.142l0.07-1.91C29.837,40.457,30.126,37.553,29.813,34.917z"/>
				<path class="st313" d="M181.747,18.514c-2.321,2.613-3.483,5.97-3.483,10.081c0,4.212,1.156,7.597,3.465,10.153
					c2.311,2.559,5.496,3.838,9.546,3.838c4.053,0,7.235-1.284,9.544-3.857c2.311-2.568,3.467-5.948,3.467-10.135
					c0-4.083-1.17-7.438-3.507-10.06c-2.335-2.624-5.5-3.936-9.504-3.936C187.248,14.599,184.073,15.904,181.747,18.514
					 M184.603,36.108c-1.483-2.038-2.223-4.546-2.223-7.513c0-2.97,0.773-5.475,2.321-7.515c1.548-2.04,3.738-3.061,6.574-3.061
					s5.026,1.02,6.574,3.061c1.548,2.04,2.323,4.546,2.323,7.515c0,2.942-0.756,5.44-2.265,7.494
					c-1.508,2.052-3.717,3.079-6.633,3.079C188.312,39.168,186.085,38.148,184.603,36.108 M164.884,42.103h3.873V30.794
					l10.532-15.71l-4.522,0.009l-7.891,12.098l-8.022-12.101l-4.529-0.007l10.56,15.71V42.103z M152.202,15.084h-3.873v15.334
					c0,2.813-0.509,4.975-1.531,6.486c-1.018,1.508-2.717,2.264-5.094,2.264c-2.377,0-4.076-0.768-5.094-2.302
					c-1.023-1.538-1.532-3.686-1.532-6.448V15.084h-3.873v15.843c0,3.773,0.911,6.658,2.729,8.659c1.823,2.001,4.412,3,7.77,3
					s5.946-0.999,7.77-3c1.821-2.001,2.729-4.886,2.729-8.659V15.084z M128.286,15.766c-1.006-0.441-1.975-0.747-2.907-0.913
					c-0.929-0.168-1.989-0.254-3.175-0.254c-4.181,0-7.611,1.275-10.287,3.819c-2.675,2.545-4.015,5.9-4.015,10.058
					c0,4.319,1.3,7.749,3.899,10.293c2.596,2.545,6.054,3.817,10.366,3.817c1.106,0,2.181-0.065,3.212-0.194
					c1.034-0.128,2.015-0.388,2.944-0.777l-0.231-3.78c-0.645,0.392-1.536,0.712-2.673,0.962c-1.137,0.245-2.206,0.371-3.215,0.371
					c-2.865,0-5.279-0.98-7.242-2.944c-1.961-1.963-2.942-4.506-2.942-7.63c0-3.075,0.953-5.605,2.862-7.595
					c1.914-1.989,4.417-2.981,7.513-2.981c2.017,0,3.876,0.502,5.58,1.503L128.286,15.766z M83.06,42.103h3.873l0.075-22.21
					l12.238,22.21h4.961V15.084h-3.873l-0.075,21.703l-11.93-21.705l-5.269,0.002V42.103z M77.968,15.084h-3.871v15.334
					c0,2.813-0.509,4.975-1.531,6.486c-1.02,1.508-2.717,2.264-5.094,2.264c-2.377,0-4.076-0.768-5.096-2.302
					c-1.02-1.538-1.529-3.686-1.529-6.448V15.084h-3.873v15.843c0,3.773,0.908,6.658,2.729,8.659c1.821,2.001,4.413,3,7.77,3
					c3.357,0,5.947-0.999,7.77-3c1.816-2.001,2.727-4.886,2.727-8.659V15.084z"/>
			</g>
		</g>
	</g>
</g>
</svg>
